<svg width="22" height="21" viewBox="0 0 22 21" fill="none" xmlns="http://www.w3.org/2000/svg">
<path d="M1 19C0.999998 17.6081 1.36317 16.2402 2.05363 15.0316C2.74409 13.823 3.73794 12.8155 4.93699 12.1086C6.13604 11.4016 7.49879 11.0198 8.89059 11.0007C10.2824 10.9817 11.6551 11.3261 12.873 12" stroke="#4D4D4D" stroke-width="2" stroke-linecap="round" stroke-linejoin="round"/>
<path d="M9 11C11.7614 11 14 8.76142 14 6C14 3.23858 11.7614 1 9 1C6.23858 1 4 3.23858 4 6C4 8.76142 6.23858 11 9 11Z" stroke="#4D4D4D" stroke-width="2" stroke-linecap="round" stroke-linejoin="round"/>
<path d="M16 15L21 20M21 15L16 20" stroke="#4D4D4D" stroke-width="2" stroke-linecap="round" stroke-linejoin="round"/>
</svg>
