<svg width="19" height="17" viewBox="0 0 19 17" fill="none" xmlns="http://www.w3.org/2000/svg">
<path d="M17.4997 6.24967V2.49967C17.4997 2.05765 17.3241 1.63372 17.0115 1.32116C16.699 1.0086 16.275 0.833008 15.833 0.833008H2.49967C2.05765 0.833008 1.63372 1.0086 1.32116 1.32116C1.0086 1.63372 0.833008 2.05765 0.833008 2.49967V12.4997C0.833008 13.4163 1.58301 14.1663 2.49967 14.1663H12.9163" stroke="#4D4D4D" stroke-width="1.66667" stroke-linecap="round" stroke-linejoin="round"/>
<path d="M17.4997 3.33301L10.0247 8.08301C9.7674 8.2442 9.46994 8.32968 9.16634 8.32968C8.86274 8.32968 8.56528 8.2442 8.30801 8.08301L0.833008 3.33301M14.1663 10.233C14.333 9.89967 14.583 9.56634 14.9163 9.39967C15.2614 9.20015 15.6643 9.12444 16.0583 9.18505C16.4523 9.24567 16.8138 9.43898 17.083 9.73301C17.333 10.0663 17.4997 10.3997 17.4997 10.8163C17.4997 11.8997 15.833 12.483 15.833 12.483M15.833 15.833V15.8413" stroke="#4D4D4D" stroke-width="1.66667" stroke-linecap="round" stroke-linejoin="round"/>
</svg>
