<svg width="100" height="47" viewBox="0 0 100 47" fill="none" xmlns="http://www.w3.org/2000/svg">
<path d="M94.1498 8.5H95.6998C98.7498 8.5 99.6498 10.85 99.6498 12.85C99.6498 14.9 98.6998 17.2 95.6998 17.2H94.1498V25.95H84.1498V4.95C84.1498 1.7 86.4998 0 89.1498 0C91.7998 0 94.1498 1.7 94.1498 4.95V8.5ZM77.2998 24.7H57.1498C52.8998 24.7 51.5498 23.05 51.5498 19.2V6.95C51.5498 3.1 52.8998 1.5 57.1498 1.5H75.1498C78.0498 1.5 78.8998 3.5 78.8998 5.35C78.8998 7.2 77.9998 9.25 75.1498 9.25H62.0998C61.3998 9.25 61.0998 9.55 61.0998 10.2V16.1C61.0998 16.75 61.3998 17.05 62.0998 17.05H77.2998C80.1998 17.05 80.9498 19.1 80.9498 20.9C80.9498 22.8 80.1498 24.7 77.2998 24.7ZM60.4998 27.7H87.4498C93.3498 27.7 94.4498 29.5 94.4498 35.05V46.95H60.4998C54.4498 46.95 53.3498 45.15 53.3498 39.45V35.2C53.3498 29.5 54.4498 27.7 60.4998 27.7ZM64.3498 40H84.5998V35.8C84.5998 34.8 84.3498 34.55 83.4498 34.55H64.3498C63.4498 34.55 63.1998 34.8 63.1998 35.8V38.75C63.1998 39.85 63.4498 40 64.3498 40Z" fill="#3500FA"/>
<path d="M6.5 29.35C3.4 30.2 1.25 28.95 0.55 26.95C-0.15 24.95 0.700001 22.8 2.8 21.55C6.25 19.5 8.45 14.4 8.45 7.60004V5.05004C8.45 2.00004 10.9 0.700044 13.4 0.750044C15.95 0.800043 18.05 2.20004 18.05 5.20004V7.65004C18.05 8.95004 18 10.2 17.85 11.4C21.25 12.35 24.2 14.85 25.75 18.05C27.1 15.45 27.75 12 27.75 7.65004V5.05004C27.75 2.00004 30.2 0.700044 32.7 0.750044C35.25 0.800043 37.35 2.20004 37.35 5.20004V7.65004C37.35 8.95004 37.3 10.15 37.15 11.35C42.65 13.35 46.6 19.4 46.1 28.95H36.95C37.35 25.4 36.6 22.15 34.8 20.3C32.35 25.6 28.55 28.8 24.85 29.75C22.35 30.4 19.7 29.65 19.05 27.8C18.75 26.9 18.7 25.9 19.05 25C18.8 22.75 17.65 20.7 15.9 19.55C13.8 24.85 10.25 28.3 6.5 29.35ZM4.3 37.5H42.5C45.6 37.5 46.8 39.7 46.8 41.75C46.8 43.85 45.55 45.95 42.5 45.95H4.3C1.25 45.95 0 43.85 0 41.75C0 39.7 1.2 37.5 4.3 37.5Z" fill="#3500FA"/>
</svg>
