<svg width="16" height="16" viewBox="0 0 16 16" fill="none" xmlns="http://www.w3.org/2000/svg">
<path d="M2.66699 1.33337V14.6667L4.00033 14L5.33366 14.6667L6.66699 14L8.00033 14.6667L9.33366 14L10.667 14.6667L12.0003 14L13.3337 14.6667V1.33337L12.0003 2.00004L10.667 1.33337L9.33366 2.00004L8.00033 1.33337L6.66699 2.00004L5.33366 1.33337L4.00033 2.00004L2.66699 1.33337Z" stroke="#4D4D4D" stroke-width="1.5" stroke-linecap="round" stroke-linejoin="round"/>
<path d="M10.6673 5.33337H6.66732C6.3137 5.33337 5.97456 5.47385 5.72451 5.7239C5.47446 5.97395 5.33398 6.31309 5.33398 6.66671C5.33398 7.02033 5.47446 7.35947 5.72451 7.60952C5.97456 7.85956 6.3137 8.00004 6.66732 8.00004H9.33398C9.68761 8.00004 10.0267 8.14052 10.2768 8.39057C10.5268 8.64061 10.6673 8.97975 10.6673 9.33337C10.6673 9.687 10.5268 10.0261 10.2768 10.2762C10.0267 10.5262 9.68761 10.6667 9.33398 10.6667H5.33398M8.00065 11.6667V4.33337" stroke="#4D4D4D" stroke-width="1.5" stroke-linecap="round" stroke-linejoin="round"/>
</svg>
