<svg width="98" height="48" viewBox="0 0 98 48" fill="none" xmlns="http://www.w3.org/2000/svg">
<path d="M52.6999 47.32C52.6599 47.32 52.5999 47.28 52.5199 47.2C52.1199 46.88 51.8399 46.4 51.6799 45.76C51.5599 45.16 51.4999 44.64 51.4999 44.2C51.4599 43.48 51.3999 42.76 51.3199 42.04C51.2799 41.32 51.2599 40.62 51.2599 39.94C51.2599 38.9 51.2599 37.88 51.2599 36.88C51.2599 35.88 51.3599 34.88 51.5599 33.88C51.6799 33.24 51.8799 32.74 52.1599 32.38C52.4399 31.98 52.8799 31.66 53.4799 31.42C54.5999 30.98 55.7199 30.76 56.8399 30.76H83.9599C84.7199 30.8 85.4999 30.86 86.2999 30.94C87.0999 31.02 87.8599 31.22 88.5799 31.54C89.3799 31.86 89.8999 32.4 90.1399 33.16C90.4199 33.88 90.5999 34.64 90.6799 35.44C90.7199 36.12 90.7399 36.92 90.7399 37.84C90.7799 38.72 90.7799 39.62 90.7399 40.54C90.6999 41.46 90.6399 42.36 90.5599 43.24C90.4799 44.16 90.3399 44.98 90.1399 45.7C90.0199 46.14 89.8799 46.52 89.7199 46.84C89.5599 47.2 89.2399 47.46 88.7599 47.62C88.32 47.78 87.8599 47.88 87.3799 47.92C86.9399 47.96 86.4999 47.98 86.0599 47.98L55.9399 47.86C55.4199 47.82 54.8599 47.8 54.2599 47.8C53.6599 47.8 53.1399 47.64 52.6999 47.32ZM70.7599 19C71.3599 19 71.9799 19.06 72.6199 19.18C73.2599 19.26 73.8599 19.46 74.4199 19.78C74.9799 20.06 75.4399 20.46 75.7999 20.98C76.1599 21.46 76.3399 22.12 76.3399 22.96C76.3399 23.8 76.0199 24.46 75.3799 24.94C74.7399 25.42 73.9599 25.78 73.0399 26.02C72.1199 26.26 71.1399 26.42 70.0999 26.5C69.0999 26.54 68.2199 26.56 67.4599 26.56H58.3999C57.6799 26.56 56.9399 26.56 56.1799 26.56C55.4599 26.56 54.7599 26.5 54.0799 26.38C53.4399 26.26 52.8599 26.08 52.3399 25.84C51.8199 25.56 51.3999 25.18 51.0799 24.7C50.7199 24.18 50.4599 23.54 50.2999 22.78C50.1799 21.98 50.0799 21.22 49.9999 20.5C49.9599 19.74 49.9399 19.1 49.9399 18.58C49.9799 18.02 49.9999 17.7 49.9999 17.62L50.1199 6.82C50.1199 6.7 50.1199 6.48 50.1199 6.16C50.1199 5.84 50.1399 5.5 50.1799 5.14C50.2199 4.74 50.2799 4.34 50.3599 3.94C50.4399 3.54 50.5599 3.22 50.7199 2.98C51.0799 2.42 51.4399 2 51.7999 1.72C52.1999 1.44 52.7199 1.26 53.3599 1.18C54.1599 1.02 55.3199 0.940002 56.8399 0.940002C56.9599 0.940002 57.3199 0.940002 57.9199 0.940002C58.5199 0.940002 59.2199 0.960002 60.0199 1C60.8599 1 61.7599 1.02 62.7199 1.06C63.6799 1.06 64.5599 1.08 65.3599 1.12C66.1999 1.12 66.9199 1.14 67.5199 1.18C68.1199 1.18 68.4799 1.18 68.5999 1.18C69.1199 1.18 69.6599 1.2 70.2199 1.24C70.7799 1.24 71.3199 1.3 71.8399 1.42C72.3599 1.54 72.8399 1.74 73.2799 2.02C73.7599 2.26 74.1599 2.64 74.4799 3.16C74.9199 3.84 75.1199 4.58 75.0799 5.38C75.0799 6.18 74.8399 6.92 74.3599 7.6C74.1199 7.92 73.7999 8.18 73.3999 8.38C72.9999 8.58 72.5599 8.74 72.0799 8.86C71.5999 8.94 71.1199 9 70.6399 9.04C70.1999 9.04 69.8199 9.04 69.4999 9.04L58.3399 8.98L58.4599 18.82C58.9799 18.86 59.8199 18.9 60.9799 18.94C62.1399 18.98 63.3399 19 64.5799 19C65.8599 19 67.0799 19 68.2399 19C69.3999 19 70.2399 19 70.7599 19ZM90.3799 19.3V23.62C90.3399 24.06 90.2799 24.52 90.1999 25C90.1199 25.44 89.9599 25.88 89.7199 26.32C89.4799 26.8 89.1399 27.2 88.6999 27.52C88.3799 27.72 87.9999 27.88 87.5599 28C87.1599 28.08 86.7999 28.12 86.4799 28.12C86.1599 28.12 85.8199 28.1 85.4599 28.06C85.0999 27.98 84.7999 27.86 84.5599 27.7C84.1599 27.46 83.8399 27.16 83.5999 26.8C83.3599 26.44 83.1599 26.1 82.9999 25.78C82.8799 25.42 82.7999 25.12 82.7599 24.88C82.7199 24.6 82.6999 24.46 82.6999 24.46V4.6C82.6599 4.44 82.6799 4 82.7599 3.28C82.8399 2.56 82.9999 1.96 83.2399 1.48C83.4399 1.08 83.7799 0.760002 84.2599 0.52C84.7799 0.280001 85.3199 0.12 85.8799 0.039999C86.5599 -0.0399999 87.2399 9.68575e-07 87.9199 0.160001C88.5999 0.320002 89.0999 0.580002 89.4199 0.940002C89.6599 1.26 89.82 1.58 89.8999 1.9C90.02 2.18 90.1199 2.48 90.1999 2.8C90.3199 3.2 90.3799 3.62 90.3799 4.06C90.4199 4.5 90.4199 4.94 90.3799 5.38V12.64C90.5399 12.64 90.8399 12.66 91.2799 12.7C91.7199 12.7 92.1799 12.72 92.6599 12.76C93.1399 12.76 93.5999 12.78 94.0399 12.82C94.4799 12.86 94.7999 12.9 94.9999 12.94C95.7999 13.1 96.3599 13.34 96.6799 13.66C96.9999 13.94 97.1999 14.3 97.2799 14.74C97.3999 15.18 97.4599 15.7 97.4599 16.3C97.4599 16.86 97.3399 17.34 97.0999 17.74C96.6199 18.54 95.8999 19 94.9399 19.12C93.9799 19.2 92.9199 19.26 91.7599 19.3H90.3799ZM58.3999 40.3C58.3999 40.5 58.3999 40.7 58.3999 40.9C58.4399 41.06 58.5199 41.18 58.6399 41.26C58.7199 41.34 58.8399 41.38 58.9999 41.38C59.1999 41.42 59.3999 41.44 59.5999 41.44C59.7999 41.44 60.0399 41.42 60.3199 41.38H77.9599C78.5199 41.42 79.0599 41.46 79.5799 41.5C80.0199 41.54 80.4799 41.56 80.9599 41.56C81.4399 41.56 81.8799 41.52 82.2799 41.44C82.6799 41.4 82.9199 41.3 82.9999 41.14C83.0799 40.94 83.1399 40.66 83.1799 40.3C83.2199 39.98 83.2399 39.62 83.2399 39.22C83.2399 38.78 83.1199 38.4 82.8799 38.08C82.5999 37.76 82.1999 37.6 81.6799 37.6C81.1999 37.56 80.7599 37.56 80.3599 37.6H64.8199C63.9399 37.52 63.0799 37.5 62.2399 37.54C61.3999 37.54 60.5399 37.56 59.6599 37.6C59.3399 37.6 59.0799 37.62 58.8799 37.66C58.7199 37.66 58.5999 37.84 58.5199 38.2C58.4399 38.48 58.3999 38.76 58.3999 39.04C58.3999 39.28 58.3999 39.52 58.3999 39.76C58.4399 39.84 58.4399 39.92 58.3999 40C58.3999 40.08 58.3999 40.18 58.3999 40.3Z" fill="white"/>
<path d="M27.3 7.71973C27.3 7.55973 27.32 7.27973 27.36 6.87973C27.4 6.47973 27.44 6.07973 27.48 5.67973C27.52 5.23973 27.56 4.83973 27.6 4.47973C27.68 4.11973 27.76 3.85973 27.84 3.69973C27.92 3.49973 28.02 3.27973 28.14 3.03972C28.3 2.75973 28.48 2.51973 28.68 2.31973C28.88 2.03973 29.2 1.83973 29.64 1.71973C30.08 1.55973 30.52 1.43973 30.96 1.35973H31.08C31.48 1.27973 31.82 1.25973 32.1 1.29973C32.38 1.29973 32.7 1.33973 33.06 1.41972C33.46 1.53973 33.78 1.69973 34.02 1.89973C34.22 2.01973 34.46 2.19973 34.74 2.43973C35.06 2.67972 35.3 2.95972 35.46 3.27973C35.86 3.99973 36.1 4.83973 36.18 5.79972V7.77972C36.22 8.73973 36.22 9.63973 36.18 10.4797C36.18 11.3197 36.22 12.1397 36.3 12.9397C36.38 13.6997 36.54 14.4797 36.78 15.2797C37.02 16.0397 37.38 16.8797 37.86 17.7997C38.18 18.3597 38.48 18.8797 38.76 19.3597C39.08 19.8397 39.38 20.3197 39.66 20.7997C39.98 21.2397 40.28 21.6997 40.56 22.1797C40.88 22.6597 41.2 23.1997 41.52 23.7997C41.64 23.9997 41.76 24.2197 41.88 24.4597C42.04 24.6997 42.18 24.9397 42.3 25.1797C42.5 25.5797 42.66 26.0197 42.78 26.4997C42.94 26.9797 43.02 27.4597 43.02 27.9397C43.02 28.4197 42.92 28.8797 42.72 29.3197C42.52 29.7197 42.18 30.0597 41.7 30.3397C41.46 30.4597 41.16 30.5997 40.8 30.7597C40.44 30.9197 40.04 31.0197 39.6 31.0597C39.16 31.0997 38.72 31.0597 38.28 30.9397C37.84 30.7797 37.44 30.4797 37.08 30.0397C36.48 29.3997 35.94 28.7997 35.46 28.2397C35.02 27.6797 34.58 27.1197 34.14 26.5597C33.7 25.9597 33.26 25.3397 32.82 24.6997C32.38 24.0197 31.86 23.2597 31.26 22.4197C30.58 23.3397 29.88 24.2597 29.16 25.1797C28.48 26.0997 27.76 27.0197 27 27.9397C26.6 28.4597 26.22 28.9397 25.86 29.3797C25.5 29.7797 25.02 30.1197 24.42 30.3997C23.38 30.9597 22.38 31.0797 21.42 30.7597C21.14 30.7197 20.88 30.5997 20.64 30.3997C20.28 30.1597 19.94 29.8797 19.62 29.5597C19.3 29.2397 18.98 28.8597 18.66 28.4197C17.82 27.3797 17 26.2797 16.2 25.1197C15.44 23.9197 14.9 22.9997 14.58 22.3597C13.9 23.2797 13.2 24.1997 12.48 25.1197C11.76 26.0397 11.04 26.9597 10.32 27.8797C9.8 28.5197 9.3 29.0997 8.82 29.6197C8.38 30.1397 7.62 30.4797 6.54 30.6397C5.74 30.7597 5.02 30.7797 4.38 30.6997C3.74 30.5797 3.2 30.2597 2.76 29.7397C2.28 29.2197 2.04 28.6797 2.04 28.1197C2.04 27.5197 2.16 26.9397 2.4 26.3797C2.68 25.8197 3.02 25.2797 3.42 24.7597C3.82 24.1997 4.18 23.6797 4.5 23.1997L8.22 17.3797C8.58 16.6597 8.9 16.0797 9.18 15.6397C9.5 15.1597 9.76 14.6997 9.96 14.2597C10.16 13.8197 10.32 13.3597 10.44 12.8797C10.56 12.3997 10.62 11.7597 10.62 10.9597V5.85973C10.62 5.01973 10.78 4.27973 11.1 3.63973C11.3 3.19973 11.6 2.73973 12 2.25973C12.2 1.97973 12.52 1.77973 12.96 1.65972C13.4 1.49972 13.84 1.37972 14.28 1.29973H14.4C14.8 1.21973 15.14 1.19973 15.42 1.23973C15.7 1.23973 16 1.27973 16.32 1.35973C16.52 1.43973 16.7 1.51973 16.86 1.59972C17.02 1.67973 17.18 1.75973 17.34 1.83973C17.54 1.95973 17.78 2.13973 18.06 2.37973C18.38 2.61972 18.62 2.89973 18.78 3.21973C18.98 3.57973 19.12 3.97973 19.2 4.41972C19.32 4.81972 19.42 5.25973 19.5 5.73973V10.1197C19.5 10.9197 19.48 11.6197 19.44 12.2197C19.4 12.7797 19.4 13.3397 19.44 13.8997C19.48 14.4197 19.58 14.9397 19.74 15.4597C19.94 15.9797 20.24 16.5397 20.64 17.1397C20.96 17.8197 21.3 18.4997 21.66 19.1797C22.02 19.8597 22.38 20.5597 22.74 21.2797C23.18 20.7197 23.58 20.1797 23.94 19.6597C24.3 19.1397 24.68 18.4997 25.08 17.7397C25.8 16.2997 26.34 15.0797 26.7 14.0797C27.1 13.0397 27.3 12.0397 27.3 11.0797V7.71973ZM5.16 44.1397C4.52 44.0997 3.88 43.9997 3.24 43.8397C2.64 43.7197 2.1 43.5197 1.62 43.2397C1.14 42.9997 0.74 42.6397 0.42 42.1597C0.14 41.6797 0 41.0397 0 40.2397C0 39.4397 0.26 38.7397 0.78 38.1397C1.1 37.8197 1.5 37.5797 1.98 37.4197C2.46 37.2597 2.92 37.1397 3.36 37.0597C3.8 36.9797 4.18 36.9397 4.5 36.9397C4.86 36.9397 5.06 36.9397 5.1 36.9397L38.52 36.9997C39.56 36.9997 40.5 37.0197 41.34 37.0597C42.22 37.0597 43 37.3397 43.68 37.8997C44.52 38.6597 44.94 39.5197 44.94 40.4797C44.94 41.0797 44.76 41.6197 44.4 42.0997C44.04 42.6197 43.56 42.9797 42.96 43.1797C42.16 43.4997 41.32 43.7197 40.44 43.8397C39.6 43.9597 38.76 44.0397 37.92 44.0797C35 44.1997 32.02 44.2397 28.98 44.1997C25.94 44.1597 23.08 44.1397 20.4 44.1397C17.52 44.1397 14.7 44.1597 11.94 44.1997C9.22 44.2397 6.96 44.2197 5.16 44.1397Z" fill="white"/>
</svg>
