<svg width="151" height="64" viewBox="0 0 151 64" fill="none" xmlns="http://www.w3.org/2000/svg">
<path d="M36.4 8.86662C36.4 8.65328 36.4267 8.27995 36.48 7.74661C36.5333 7.21328 36.5867 6.67995 36.64 6.14662C36.6933 5.55995 36.7467 5.02662 36.8 4.54662C36.9067 4.06662 37.0133 3.71995 37.12 3.50662C37.2267 3.23995 37.36 2.94662 37.52 2.62662C37.7333 2.25328 37.9733 1.93328 38.24 1.66662C38.5067 1.29328 38.9333 1.02662 39.52 0.866619C40.1067 0.653285 40.6933 0.493284 41.28 0.386615H41.44C41.9733 0.27995 42.4267 0.253284 42.8 0.306616C43.1733 0.306616 43.6 0.359949 44.08 0.466614C44.6133 0.626616 45.04 0.839949 45.36 1.10662C45.6267 1.26662 45.9467 1.50662 46.32 1.82662C46.7467 2.14662 47.0667 2.51995 47.28 2.94662C47.8133 3.90662 48.1333 5.02662 48.24 6.30662V8.94662C48.2933 10.2266 48.2933 11.4266 48.24 12.5466C48.24 13.6666 48.2933 14.76 48.4 15.8266C48.5067 16.84 48.72 17.8799 49.04 18.9466C49.36 19.9599 49.84 21.0799 50.48 22.3066C50.9067 23.0533 51.3067 23.7466 51.68 24.3866C52.1067 25.0266 52.5067 25.6666 52.88 26.3066C53.3067 26.8933 53.7067 27.5066 54.08 28.1466C54.5067 28.7866 54.9333 29.5066 55.36 30.3066C55.52 30.5733 55.68 30.8666 55.84 31.1866C56.0533 31.5066 56.24 31.8266 56.4 32.1466C56.6667 32.68 56.88 33.2666 57.04 33.9066C57.2533 34.5466 57.36 35.1866 57.36 35.8266C57.36 36.4666 57.2267 37.08 56.96 37.6666C56.6933 38.2 56.24 38.6533 55.6 39.0266C55.28 39.1866 54.88 39.3733 54.4 39.5866C53.92 39.8 53.3867 39.9333 52.8 39.9866C52.2133 40.04 51.6267 39.9866 51.04 39.8266C50.4533 39.6133 49.92 39.2133 49.44 38.6266C48.64 37.7733 47.92 36.9733 47.28 36.2266C46.6933 35.48 46.1067 34.7333 45.52 33.9866C44.9333 33.1866 44.3467 32.36 43.76 31.5066C43.1733 30.6 42.48 29.5866 41.68 28.4666C40.7733 29.6933 39.84 30.92 38.88 32.1466C37.9733 33.3733 37.0133 34.6 36 35.8266C35.4667 36.52 34.96 37.16 34.48 37.7466C34 38.28 33.36 38.7333 32.56 39.1066C31.1733 39.8533 29.84 40.0133 28.56 39.5866C28.1867 39.5333 27.84 39.3733 27.52 39.1066C27.04 38.7866 26.5867 38.4133 26.16 37.9866C25.7333 37.56 25.3067 37.0533 24.88 36.4666C23.76 35.08 22.6667 33.6133 21.6 32.0666C20.5867 30.4666 19.8667 29.24 19.44 28.3866C18.5333 29.6133 17.6 30.84 16.64 32.0666C15.68 33.2933 14.72 34.52 13.76 35.7466C13.0667 36.6 12.4 37.3733 11.76 38.0666C11.1733 38.76 10.16 39.2133 8.72 39.4266C7.65333 39.5866 6.69333 39.6133 5.84 39.5066C4.98667 39.3466 4.26667 38.92 3.68 38.2266C3.04 37.5333 2.72 36.8133 2.72 36.0666C2.72 35.2666 2.88 34.4933 3.2 33.7466C3.57333 33 4.02667 32.2799 4.56 31.5866C5.09333 30.84 5.57333 30.1466 6 29.5066L10.96 21.7466C11.44 20.7866 11.8667 20.0133 12.24 19.4266C12.6667 18.7866 13.0133 18.1733 13.28 17.5866C13.5467 17 13.76 16.3866 13.92 15.7466C14.08 15.1066 14.16 14.2533 14.16 13.1866V6.38662C14.16 5.26662 14.3733 4.27995 14.8 3.42662C15.0667 2.83995 15.4667 2.22662 16 1.58662C16.2667 1.21328 16.6933 0.946616 17.28 0.786615C17.8667 0.573281 18.4533 0.413282 19.04 0.306616H19.2C19.7333 0.199951 20.1867 0.173285 20.56 0.226617C20.9333 0.226617 21.3333 0.27995 21.76 0.386615C22.0267 0.493284 22.2667 0.599951 22.48 0.706616C22.6933 0.813285 22.9067 0.919951 23.12 1.02662C23.3867 1.18662 23.7067 1.42662 24.08 1.74662C24.5067 2.06662 24.8267 2.43995 25.04 2.86662C25.3067 3.34662 25.4933 3.87995 25.6 4.46662C25.76 4.99995 25.8933 5.58662 26 6.22662V12.0666C26 13.1333 25.9733 14.0666 25.92 14.8666C25.8667 15.6133 25.8667 16.36 25.92 17.1066C25.9733 17.8 26.1067 18.4933 26.32 19.1866C26.5867 19.88 26.9867 20.6266 27.52 21.4266C27.9467 22.3333 28.4 23.24 28.88 24.1466C29.36 25.0533 29.84 25.9866 30.32 26.9466C30.9067 26.1999 31.44 25.48 31.92 24.7866C32.4 24.0933 32.9067 23.24 33.44 22.2266C34.4 20.3066 35.12 18.68 35.6 17.3466C36.1333 15.96 36.4 14.6266 36.4 13.3466V8.86662ZM6.88 57.4266C6.02667 57.3733 5.17333 57.24 4.32 57.0266C3.52 56.8666 2.8 56.6 2.16 56.2266C1.52 55.9066 0.986667 55.4266 0.56 54.7866C0.186667 54.1466 0 53.2933 0 52.2266C0 51.16 0.346666 50.2266 1.04 49.4266C1.46667 49 2 48.68 2.64 48.4666C3.28 48.2533 3.89333 48.0933 4.48 47.9866C5.06667 47.88 5.57333 47.8266 6 47.8266C6.48 47.8266 6.74667 47.8266 6.8 47.8266L51.36 47.9066C52.7467 47.9066 54 47.9333 55.12 47.9866C56.2933 47.9866 57.3333 48.36 58.24 49.1066C59.36 50.12 59.92 51.2666 59.92 52.5466C59.92 53.3466 59.68 54.0666 59.2 54.7066C58.72 55.4 58.08 55.88 57.28 56.1466C56.2133 56.5733 55.0933 56.8666 53.92 57.0266C52.8 57.1866 51.68 57.2933 50.56 57.3466C46.6667 57.5066 42.6933 57.56 38.64 57.5066C34.5867 57.4533 30.7733 57.4266 27.2 57.4266C23.36 57.4266 19.6 57.4533 15.92 57.5066C12.2933 57.56 9.28 57.5333 6.88 57.4266Z" fill="#3500FA"/>
<path d="M70.7249 62.4394C70.6716 62.4394 70.5916 62.386 70.4849 62.2794C69.9516 61.8527 69.5783 61.2127 69.3649 60.3594C69.2049 59.5594 69.1249 58.866 69.1249 58.2794C69.0716 57.3194 68.9916 56.3594 68.8849 55.3994C68.8316 54.4394 68.8049 53.506 68.8049 52.5994C68.8049 51.2127 68.8049 49.8527 68.8049 48.5194C68.8049 47.186 68.9383 45.8527 69.2049 44.5194C69.3649 43.666 69.6316 42.9994 70.0049 42.5194C70.3783 41.986 70.9649 41.5594 71.7649 41.2394C73.2583 40.6527 74.7516 40.3594 76.2449 40.3594H112.405C113.418 40.4127 114.458 40.4927 115.525 40.5994C116.592 40.706 117.605 40.9727 118.565 41.3994C119.632 41.826 120.325 42.546 120.645 43.5594C121.018 44.5194 121.258 45.5327 121.365 46.5994C121.418 47.506 121.445 48.5727 121.445 49.7994C121.498 50.9727 121.498 52.1727 121.445 53.3994C121.392 54.626 121.312 55.826 121.205 56.9994C121.098 58.226 120.912 59.3194 120.645 60.2794C120.485 60.866 120.298 61.3727 120.085 61.7994C119.872 62.2794 119.445 62.626 118.805 62.8394C118.218 63.0527 117.605 63.186 116.965 63.2394C116.378 63.2927 115.792 63.3194 115.205 63.3194L75.0449 63.1594C74.3516 63.106 73.6049 63.0794 72.8049 63.0794C72.0049 63.0794 71.3116 62.866 70.7249 62.4394ZM94.8049 24.6794C95.6049 24.6794 96.4316 24.7594 97.2849 24.9194C98.1383 25.026 98.9383 25.2927 99.6849 25.7194C100.432 26.0927 101.045 26.626 101.525 27.3194C102.005 27.9594 102.245 28.8394 102.245 29.9594C102.245 31.0794 101.818 31.9594 100.965 32.5994C100.112 33.2394 99.0716 33.7194 97.8449 34.0394C96.6183 34.3594 95.3116 34.5727 93.9249 34.6794C92.5916 34.7327 91.4183 34.7594 90.4049 34.7594H78.3249C77.3649 34.7594 76.3783 34.7594 75.3649 34.7594C74.4049 34.7594 73.4716 34.6794 72.5649 34.5194C71.7116 34.3594 70.9383 34.1194 70.2449 33.7994C69.5516 33.426 68.9916 32.9194 68.5649 32.2794C68.0849 31.586 67.7383 30.7327 67.5249 29.7194C67.3649 28.6527 67.2316 27.6394 67.1249 26.6794C67.0716 25.666 67.0449 24.8127 67.0449 24.1194C67.0983 23.3727 67.1249 22.946 67.1249 22.8394L67.2849 8.43936C67.2849 8.27936 67.2849 7.98603 67.2849 7.55937C67.2849 7.1327 67.3116 6.67936 67.3649 6.19936C67.4183 5.66603 67.4983 5.1327 67.6049 4.59937C67.7116 4.06603 67.8716 3.63936 68.0849 3.31936C68.5649 2.5727 69.0449 2.0127 69.5249 1.63937C70.0583 1.26603 70.7516 1.02603 71.6049 0.919366C72.6716 0.706032 74.2183 0.599365 76.2449 0.599365C76.4049 0.599365 76.8849 0.599365 77.6849 0.599365C78.4849 0.599365 79.4183 0.626032 80.4849 0.679364C81.6049 0.679364 82.8049 0.706031 84.0849 0.759363C85.3649 0.759363 86.5383 0.78603 87.6049 0.839362C88.7249 0.839362 89.6849 0.86603 90.4849 0.919366C91.2849 0.919366 91.7649 0.919366 91.9249 0.919366C92.6183 0.919366 93.3383 0.946032 94.0849 0.999365C94.8316 0.999365 95.5516 1.07936 96.2449 1.23936C96.9383 1.39936 97.5783 1.66603 98.1649 2.03937C98.8049 2.35936 99.3383 2.86603 99.7649 3.55937C100.352 4.46603 100.618 5.4527 100.565 6.51937C100.565 7.58603 100.245 8.5727 99.6049 9.47937C99.2849 9.90603 98.8583 10.2527 98.3249 10.5194C97.7916 10.786 97.2049 10.9994 96.5649 11.1594C95.9249 11.266 95.2849 11.346 94.6449 11.3994C94.0583 11.3994 93.5516 11.3994 93.1249 11.3994L78.2449 11.3194L78.4049 24.4394C79.0983 24.4927 80.2183 24.546 81.7649 24.5994C83.3116 24.6527 84.9116 24.6794 86.5649 24.6794C88.2716 24.6794 89.8983 24.6794 91.4449 24.6794C92.9916 24.6794 94.1116 24.6794 94.8049 24.6794ZM78.3249 53.0794C78.3249 53.346 78.3249 53.6127 78.3249 53.8794C78.3783 54.0927 78.4849 54.2527 78.6449 54.3594C78.7516 54.466 78.9116 54.5194 79.1249 54.5194C79.3916 54.5727 79.6583 54.5994 79.9249 54.5994C80.1916 54.5994 80.5116 54.5727 80.8849 54.5194H104.405C105.152 54.5727 105.872 54.626 106.565 54.6794C107.152 54.7327 107.765 54.7594 108.405 54.7594C109.045 54.7594 109.632 54.706 110.165 54.5994C110.698 54.546 111.018 54.4127 111.125 54.1994C111.232 53.9327 111.312 53.5594 111.365 53.0794C111.418 52.6527 111.445 52.1727 111.445 51.6394C111.445 51.0527 111.285 50.546 110.965 50.1194C110.592 49.6927 110.058 49.4794 109.365 49.4794C108.725 49.426 108.138 49.426 107.605 49.4794H86.8849C85.7116 49.3727 84.5649 49.346 83.4449 49.3994C82.3249 49.3994 81.1783 49.426 80.0049 49.4794C79.5783 49.4794 79.2316 49.506 78.9649 49.5594C78.7516 49.5594 78.5916 49.7994 78.4849 50.2794C78.3783 50.6527 78.3249 51.026 78.3249 51.3994C78.3249 51.7194 78.3249 52.0394 78.3249 52.3594C78.3783 52.466 78.3783 52.5727 78.3249 52.6794C78.3249 52.786 78.3249 52.9194 78.3249 53.0794Z" fill="#3500FA"/>
<path d="M133.482 17.0602L132.864 18.8993L132.245 20.7384L133.73 19.9025L135.216 19.0666L133.482 17.0602Z" fill="#2A00C7"/>
<path d="M132.245 20.7384L132.864 18.8993L133.482 17.0602L150.096 9.20004L132.009 15.0096L132.245 20.7384Z" fill="#1F0094"/>
<path d="M150.096 9.20004L133.482 17.0602L135.216 19.0666L138.385 22.735C138.801 23.2172 139.557 23.192 139.94 22.6829L150.096 9.20004Z" fill="#3500FA"/>
<path d="M132.009 15.0096L150.096 9.20004L130.596 11.4616C129.746 11.5601 129.405 12.6109 130.034 13.1905L132.009 15.0096Z" fill="#3500FA"/>
<path d="M132.245 20.7384L132.009 15.0096M132.245 20.7384L133.73 19.9025L135.216 19.0666M132.245 20.7384L132.864 18.8993L133.482 17.0602M133.482 17.0602L150.096 9.20004M133.482 17.0602L135.216 19.0666M150.096 9.20004L139.94 22.6829C139.557 23.192 138.801 23.2172 138.385 22.735L135.216 19.0666M150.096 9.20004L132.009 15.0096M150.096 9.20004L130.596 11.4616C129.746 11.5601 129.405 12.6109 130.034 13.1905L132.009 15.0096" stroke="#3500FA" stroke-width="0.6" stroke-miterlimit="1.30541" stroke-linecap="round"/>
<path d="M120.4 13.917V4.19995C120.4 1.99081 118.61 0.199951 116.4 0.199951H114.4C112.191 0.199951 110.4 1.99081 110.4 4.19995V20.3156C111.9 18.7 113.4 15.7 120.4 13.917Z" fill="#3500FA" stroke="#3500FA" stroke-width="0.4" stroke-linejoin="round"/>
<path d="M110.4 29.2V33.2C110.4 35.4091 112.191 37.2 114.4 37.2H116.4C118.61 37.2 120.4 35.4091 120.4 33.2V21.2C119.4 21.5641 114.4 24.8713 110.4 29.2Z" fill="#1F0094" stroke="#1F0094" stroke-width="0.4" stroke-linejoin="round"/>
<path d="M110.4 32.2V22.3055C110.4 21.9107 110.515 21.523 110.744 21.2015C113.562 17.2496 118.066 14.1706 126.399 13.7492C127.502 13.6934 128.4 14.5954 128.4 15.6999V20.7C128.4 21.8045 127.503 22.6906 126.404 22.7937C120.502 23.3468 114.442 26.3615 110.4 32.2Z" fill="#3500FA" stroke="#3500FA" stroke-width="0.4" stroke-linejoin="round"/>
</svg>
